# xmcd
#
# Track frame offsets: 
#        150
#        17889
#        36568
#        58292
#        81953
#        100680
#        127006
#        146428
#        170764
#        194581
#
# Disc length: 2831 seconds
#
# Revision: 0
# Processed by: cddbd v1.5.2PL0 Copyright (c) Steve Scherf et al.
# Submitted via: ExactAudioCopy v1.0b3
#
DISCID=960b0d0a
DTITLE=Che Linh, Huong Lan, Giang Thu - Thu Tinh Em Gai
DYEAR=1995
DGENRE=
TTITLE0=Che Linh, Giang Thu - Em buon anh thuong
TTITLE1=Che Linh - Chuyen ba mua mua
TTITLE2=Giang Thu - Thu tinh em gai
TTITLE3=Huong Lan - Ky niem nao buon
TTITLE4=Che Linh - Nguoi yeu co don
TTITLE5=Che Linh - Nhat ky doi toi
TTITLE6=Huong Lan - Thanh pho mua bay
TTITLE7=Giang Thu - Dung nhac chuyen long
TTITLE8=Huong Lan - Hoa trang thoi cai tren ao tim
TTITLE9=Che Linh - Nhung loi nay cho em
EXTD=
EXTT0=
EXTT1=
EXTT2=
EXTT3=
EXTT4=
EXTT5=
EXTT6=
EXTT7=
EXTT8=
EXTT9=
PLAYORDER=
